<svg viewBox="0 0 650 400" xmlns="http://www.w3.org/2000/svg">
  <!-- Weißer Hintergrund erzwingen -->
  <rect width="100%" height="100%" fill="white"/>
  
  <!-- Koordinatensystem -->
  <g stroke="black" stroke-width="2" fill="none">
    <!-- X-Achse -->
    <line x1="120" y1="350" x2="600" y2="350"/>
    <!-- Y-Achse -->
    <line x1="120" y1="350" x2="120" y2="50"/>
    
    <!-- Pfeilspitzen -->
    <polygon points="600,350 590,345 590,355" fill="black"/>
    <polygon points="120,50 115,60 125,60" fill="black"/>
  </g>
  
  <!-- Achsenbeschriftungen -->
  <text x="360" y="385" text-anchor="middle" font-size="16" font-family="Arial">Reifenbreite (mm)</text>
  <text x="25" y="200" text-anchor="middle" font-size="16" font-family="Arial" transform="rotate(-90, 25, 200)">Gesamtzeit (Stunden)</text>
  
  <!-- X-Achsen Markierungen mit realen Reifenbreiten -->
  <g font-family="Arial" font-size="14" text-anchor="middle">
    <line x1="160" y1="345" x2="160" y2="355" stroke="black" stroke-width="1"/>
    <text x="160" y="370">19</text>
    
    <line x1="200" y1="345" x2="200" y2="355" stroke="black" stroke-width="1"/>
    <text x="200" y="370">23</text>
    
    <line x1="240" y1="345" x2="240" y2="355" stroke="black" stroke-width="1"/>
    <text x="240" y="370">25</text>
    
    <line x1="280" y1="345" x2="280" y2="355" stroke="black" stroke-width="1"/>
    <text x="280" y="370">28</text>
    
    <line x1="320" y1="345" x2="320" y2="355" stroke="black" stroke-width="1"/>
    <text x="320" y="370">30</text>
    
    <line x1="360" y1="345" x2="360" y2="355" stroke="black" stroke-width="1"/>
    <text x="360" y="370">32</text>
    
    <line x1="400" y1="345" x2="400" y2="355" stroke="black" stroke-width="1"/>
    <text x="400" y="370">35</text>
    
    <line x1="440" y1="345" x2="440" y2="355" stroke="black" stroke-width="1"/>
    <text x="440" y="370">40</text>
  </g>
  
  <!-- Y-Achsen Markierungen mit Zeiten (mehr Platz nach links) -->
  <g font-family="Arial" font-size="12" text-anchor="end">
    <line x1="115" y1="320" x2="125" y2="320" stroke="black" stroke-width="1"/>
    <text x="110" y="325">90:00</text>
    
    <line x1="115" y1="280" x2="125" y2="280" stroke="black" stroke-width="1"/>
    <text x="110" y="285">85:00</text>
    
    <line x1="115" y1="240" x2="125" y2="240" stroke="black" stroke-width="1"/>
    <text x="110" y="245">83:00</text>
    
    <line x1="115" y1="200" x2="125" y2="200" stroke="black" stroke-width="1"/>
    <text x="110" y="205">80:00</text>
    
    <line x1="115" y1="160" x2="125" y2="160" stroke="black" stroke-width="1"/>
    <text x="110" y="165">77:00</text>
    
    <line x1="115" y1="120" x2="125" y2="120" stroke="black" stroke-width="1"/>
    <text x="110" y="125">73:00</text>
    
    <line x1="115" y1="80" x2="125" y2="80" stroke="black" stroke-width="1"/>
    <text x="110" y="85">70:00</text>
  </g>
  
  <!-- Glockenkurve (invertiert - niedrigere Zeit = besser) -->
  <path d="M 160 260 Q 180 220 200 180 Q 220 150 240 135 Q 260 125 280 122 Q 300 120 320 120 Q 340 122 360 135 Q 380 155 400 190 Q 420 230 440 280" 
        stroke="red" 
        stroke-width="3" 
        fill="none"/>
  
  <!-- Datenpunkte -->
  <g fill="red" stroke="red" stroke-width="2">
    <circle cx="160" cy="260" r="4"/>  <!-- 19mm: ~84h -->
    <circle cx="200" cy="180" r="4"/>  <!-- 23mm: ~78h -->
    <circle cx="240" cy="135" r="4"/>  <!-- 25mm: ~75h -->
    <circle cx="280" cy="122" r="4"/>  <!-- 28mm: ~73.5h -->
    <circle cx="320" cy="120" r="4"/>  <!-- 30mm: 73:00h (OPTIMUM) -->
    <circle cx="360" cy="135" r="4"/>  <!-- 32mm: ~75h -->
    <circle cx="400" cy="190" r="4"/>  <!-- 35mm: ~79h -->
    <circle cx="440" cy="280" r="4"/>  <!-- 40mm: ~85h -->
  </g>
  
  <!-- Besondere Markierung für optimalen Punkt -->
  <g fill="gold" stroke="darkred" stroke-width="3">
    <circle cx="320" cy="120" r="6"/>
  </g>
  
  <!-- Beschriftung der charakteristischen Punkte -->
  <g font-family="Arial" font-size="10" fill="darkred">
    <text x="135" y="250">19mm: 84:00h</text>
    <text x="175" y="170">23mm: 78:00h</text>
    <text x="215" y="125">25mm: 75:00h</text>
    <text x="255" y="112">28mm: 73:30h</text>
    <text x="260" y="105" font-weight="bold" fill="gold">30mm: 73:00h ★</text>
    <text x="335" y="125">32mm: 75:00h</text>
    <text x="375" y="180">35mm: 79:00h</text>
    <text x="415" y="270">40mm: 85:00h</text>
  </g>
  
  <!-- Titel -->
  <text x="360" y="30" text-anchor="middle" font-size="18" font-family="Arial" font-weight="bold">
    Gesamtzeit vs. Reifenbreite - Radprofi Performance
  </text>
  
  <!-- Zusatzinfo -->
  <text x="360" y="45" text-anchor="middle" font-size="12" font-family="Arial" fill="gray">
    30mm Reifen = Optimum mit 73:00 Stunden Gesamtzeit
  </text>
  
  <!-- Legende -->
  <text x="500" y="100" font-family="Arial" font-size="11" fill="gold">★ = Optimale Performance</text>
  <text x="500" y="115" font-family="Arial" font-size="11" fill="darkred">Optimale Reifenbreite</text>
</svg>